<?xml version="1.0" standalone="no"?>
<!DOCTYPE svg PUBLIC "-//W3C//DTD SVG 20010904//EN"
 "http://www.w3.org/TR/2001/REC-SVG-20010904/DTD/svg10.dtd">
<svg version="1.0" xmlns="http://www.w3.org/2000/svg"
 width="1024.000000pt" height="1024.000000pt" viewBox="0 0 1024.000000 1024.000000"
 preserveAspectRatio="xMidYMid meet">

<g transform="translate(0.000000,1024.000000) scale(0.100000,-0.100000)"
fill="#000000" stroke="none">
<path d="M4195 9108 c-313 -31 -638 -141 -903 -306 -254 -158 -492 -393 -665
-657 -143 -220 -269 -528 -322 -788 -127 -631 35 -1319 430 -1822 145 -184
383 -389 609 -524 l106 -62 -16 -37 c-9 -20 -40 -102 -69 -182 -29 -80 -65
-175 -80 -212 l-27 -68 -54 6 c-67 8 -89 -5 -128 -76 -22 -40 -27 -60 -22 -88
6 -38 -102 -340 -706 -1982 -152 -413 -175 -499 -165 -624 10 -131 69 -243
167 -317 129 -97 346 -107 515 -24 66 32 177 147 210 218 21 45 191 507 418
1142 360 1003 446 1235 468 1260 22 25 49 98 49 134 0 43 -36 90 -84 111 l-44
19 32 88 c19 48 61 163 95 254 l63 166 91 -15 c59 -10 170 -15 307 -16 301 -1
468 26 715 115 47 17 88 30 90 27 2 -2 5 -309 6 -683 2 -719 -1 -772 -45 -948
-50 -197 -136 -353 -274 -499 -127 -133 -270 -224 -528 -332 -60 -26 -119 -58
-131 -72 -33 -36 -32 -106 2 -139 28 -29 31 -30 166 -10 374 56 617 171 844
400 134 135 222 276 305 490 14 35 10 41 60 -92 67 -176 231 -390 397 -515
201 -151 444 -249 733 -293 122 -19 149 -13 180 37 53 86 13 138 -156 203
-221 86 -358 169 -491 298 -179 174 -286 389 -338 677 -10 60 -19 177 -22 320
-7 277 6 1182 17 1175 14 -9 386 14 478 29 144 23 300 65 422 113 152 60 173
71 323 170 286 188 481 446 586 775 60 189 75 341 91 938 10 385 18 463 55
526 48 81 142 137 227 135 72 -1 95 11 108 59 13 47 1 97 -29 124 -17 16 -52
17 -378 14 -345 -3 -360 -4 -415 -26 -101 -41 -200 -148 -238 -257 -31 -90
-39 -189 -50 -630 -15 -585 -29 -726 -92 -915 -133 -406 -468 -654 -914 -677
-61 -3 -123 -3 -138 1 -24 6 -26 11 -26 58 0 50 2 53 74 129 133 139 224 274
336 499 145 291 199 491 221 820 18 264 -4 489 -72 753 -97 373 -330 766 -617
1038 -321 306 -790 518 -1254 568 -114 13 -375 12 -503 -1z m527 -194 c497
-68 967 -329 1267 -704 143 -178 291 -441 355 -631 131 -391 140 -796 25
-1229 -85 -320 -242 -598 -478 -843 -242 -252 -548 -434 -901 -537 -210 -62
-527 -85 -758 -56 -455 58 -838 240 -1160 551 -231 222 -369 421 -477 683 -88
216 -132 432 -142 692 -21 593 179 1114 586 1518 309 307 697 497 1136 556
140 19 409 19 547 0z m-984 -4085 c56 -22 116 -42 132 -46 17 -3 30 -10 30
-15 0 -9 -180 -490 -186 -497 -2 -2 -70 20 -152 48 l-149 52 96 255 c76 204
98 253 111 248 8 -3 61 -24 118 -45z m-203 -707 c138 -47 254 -89 259 -93 5
-5 2 -26 -7 -51 -9 -24 -21 -55 -26 -70 l-10 -26 -278 94 c-153 52 -283 96
-290 99 -9 3 -3 25 20 74 29 63 34 69 57 64 14 -3 138 -44 275 -91z"/>
<path d="M4360 8704 c-292 -25 -468 -70 -695 -179 -312 -150 -598 -419 -768
-721 -89 -158 -139 -297 -183 -509 -20 -97 -26 -160 -31 -325 -10 -361 40
-585 198 -891 81 -156 191 -299 342 -446 275 -266 590 -424 972 -489 118 -20
376 -23 505 -5 253 35 572 163 785 316 103 73 237 199 320 300 229 278 353
565 401 925 22 170 15 452 -16 595 -156 730 -724 1288 -1430 1404 -124 20
-314 32 -400 25z m386 -239 c161 -37 377 -134 551 -248 139 -92 295 -243 412
-397 l49 -65 -413 -5 c-449 -5 -435 -3 -455 -65 -9 -26 -8 -41 4 -68 18 -44
35 -53 111 -62 136 -16 239 -92 272 -202 16 -54 17 -119 14 -893 l-3 -835 -26
-22 c-45 -36 -174 -111 -224 -130 -42 -15 -55 -16 -110 -4 -35 7 -90 27 -123
44 -73 38 -178 141 -224 220 -49 84 -100 224 -128 357 -24 110 -26 135 -33
620 -4 278 -13 535 -19 572 -37 230 -177 392 -383 444 -45 11 -132 17 -303 21
-232 5 -241 5 -266 -16 -34 -26 -43 -61 -29 -111 14 -53 42 -70 111 -70 101 0
162 -66 180 -194 5 -34 11 -252 14 -486 6 -470 16 -638 47 -780 58 -273 179
-528 315 -672 31 -32 54 -58 52 -58 -31 0 -215 61 -301 99 -213 95 -340 184
-503 352 -240 246 -390 547 -441 884 -22 139 -14 413 15 545 45 205 131 408
242 572 132 195 386 417 599 523 151 76 366 140 520 155 140 14 349 3 476 -25z
m1235 -1270 c31 -157 33 -416 5 -570 -27 -149 -35 -148 -36 6 0 75 -3 266 -6
425 -3 181 -2 283 4 274 5 -8 20 -69 33 -135z"/>
</g>
</svg>
